<svg id="visual" viewBox="0 0 900 300" width="900" height="300" xmlns="http://www.w3.org/2000/svg" xmlns:xlink="http://www.w3.org/1999/xlink" version="1.1"><rect x="0" y="0" width="900" height="300" fill="#212121"></rect><path d="M0 240L53 223L106 237L159 227L212 218L265 235L318 229L371 253L424 254L476 225L529 249L582 240L635 249L688 218L741 224L794 236L847 241L900 251L900 301L847 301L794 301L741 301L688 301L635 301L582 301L529 301L476 301L424 301L371 301L318 301L265 301L212 301L159 301L106 301L53 301L0 301Z" fill="#e57373"></path><path d="M0 260L53 234L106 232L159 241L212 235L265 258L318 249L371 261L424 241L476 247L529 234L582 254L635 255L688 243L741 264L794 234L847 254L900 240L900 301L847 301L794 301L741 301L688 301L635 301L582 301L529 301L476 301L424 301L371 301L318 301L265 301L212 301L159 301L106 301L53 301L0 301Z" fill="#e26463"></path><path d="M0 248L53 249L106 252L159 270L212 274L265 250L318 272L371 274L424 269L476 263L529 265L582 263L635 258L688 273L741 270L794 274L847 271L900 254L900 301L847 301L794 301L741 301L688 301L635 301L582 301L529 301L476 301L424 301L371 301L318 301L265 301L212 301L159 301L106 301L53 301L0 301Z" fill="#de5452"></path><path d="M0 270L53 270L106 283L159 283L212 282L265 272L318 284L371 278L424 275L476 275L529 281L582 281L635 263L688 278L741 281L794 264L847 281L900 264L900 301L847 301L794 301L741 301L688 301L635 301L582 301L529 301L476 301L424 301L371 301L318 301L265 301L212 301L159 301L106 301L53 301L0 301Z" fill="#d94341"></path><path d="M0 276L53 277L106 292L159 294L212 289L265 291L318 289L371 293L424 282L476 279L529 275L582 294L635 288L688 288L741 289L794 282L847 291L900 292L900 301L847 301L794 301L741 301L688 301L635 301L582 301L529 301L476 301L424 301L371 301L318 301L265 301L212 301L159 301L106 301L53 301L0 301Z" fill="#d32f2f"></path></svg>