<svg id="visual" viewBox="0 0 900 300" width="900" height="300" xmlns="http://www.w3.org/2000/svg" xmlns:xlink="http://www.w3.org/1999/xlink" version="1.1"><rect x="0" y="0" width="900" height="300" fill="#212121"></rect><path d="M0 63L30 56.3C60 49.7 120 36.3 180 36.8C240 37.3 300 51.7 360 51.5C420 51.3 480 36.7 540 37.7C600 38.7 660 55.3 720 66.2C780 77 840 82 870 84.5L900 87L900 0L870 0C840 0 780 0 720 0C660 0 600 0 540 0C480 0 420 0 360 0C300 0 240 0 180 0C120 0 60 0 30 0L0 0Z" fill="#d32f2f" stroke-linecap="round" stroke-linejoin="miter"></path></svg>